<?xml version="1.0" encoding="UTF-8" standalone="no"?>
<!DOCTYPE svg PUBLIC "-//W3C//DTD SVG 1.1//EN"
 "http://www.w3.org/Graphics/SVG/1.1/DTD/svg11.dtd">
<!-- Generated by graphviz version 14.1.2 (0)
 -->
<!-- Title: cramjs Pages: 1 -->
<svg width="555pt" height="810pt"
 viewBox="0.00 0.00 555.00 810.00" xmlns="http://www.w3.org/2000/svg" xmlns:xlink="http://www.w3.org/1999/xlink">
<g id="graph0" class="graph" transform="scale(1 1) rotate(0) translate(4 806.33)">
<title>cramjs</title>
<polygon fill="white" stroke="none" points="-4,4 -4,-806.33 551,-806.33 551,4 -4,4"/>
<g id="clust1" class="cluster">
<title>cluster_decode</title>
<polygon fill="white" stroke="#0969da" points="8,-138.25 8,-428.08 176,-428.08 176,-138.25 8,-138.25"/>
<text xml:space="preserve" text-anchor="middle" x="92" y="-415.53" font-family="Helvetica,sans-Serif" font-size="9.00" fill="#0969da">slice decode — worker if available</text>
</g>
<g id="clust2" class="cluster">
<title>cluster_wasm</title>
<polygon fill="white" stroke="#bc4c00" points="184,-121 184,-267.58 365,-267.58 365,-121 184,-121"/>
<text xml:space="preserve" text-anchor="middle" x="274.5" y="-127.7" font-family="Helvetica,sans-Serif" font-size="9.00" fill="#bc4c00">inlined, lazy singleton per JS context</text>
</g>
<g id="clust3" class="cluster">
<title>cluster_legend</title>
<path fill="white" stroke="#d0d7de" d="M443,-581.33C443,-581.33 527,-581.33 527,-581.33 533,-581.33 539,-587.33 539,-593.33 539,-593.33 539,-782.33 539,-782.33 539,-788.33 533,-794.33 527,-794.33 527,-794.33 443,-794.33 443,-794.33 437,-794.33 431,-788.33 431,-782.33 431,-782.33 431,-593.33 431,-593.33 431,-587.33 437,-581.33 443,-581.33"/>
<text xml:space="preserve" text-anchor="middle" x="485" y="-780.83" font-family="Helvetica,sans-Serif" font-size="10.00" fill="#57606a">Legend</text>
</g>
<!-- query -->
<g id="node1" class="node">
<title>query</title>
<path fill="#ddf4ff" stroke="#0969da" d="M409.46,-763.58C409.46,-763.58 226.54,-763.58 226.54,-763.58 220.54,-763.58 214.54,-757.58 214.54,-751.58 214.54,-751.58 214.54,-739.58 214.54,-739.58 214.54,-733.58 220.54,-727.58 226.54,-727.58 226.54,-727.58 409.46,-727.58 409.46,-727.58 415.46,-727.58 421.46,-733.58 421.46,-739.58 421.46,-739.58 421.46,-751.58 421.46,-751.58 421.46,-757.58 415.46,-763.58 409.46,-763.58"/>
<text xml:space="preserve" text-anchor="middle" x="318" y="-742.45" font-family="Helvetica,sans-Serif" font-size="10.00">getRecordsForRange(seqId, start, end)</text>
</g>
<!-- crai -->
<g id="node2" class="node">
<title>crai</title>
<path fill="#dafbe1" stroke="#1a7f37" d="M338.95,-700.58C338.95,-700.58 297.05,-700.58 297.05,-700.58 291.05,-700.58 285.05,-694.58 285.05,-688.58 285.05,-688.58 285.05,-676.58 285.05,-676.58 285.05,-670.58 291.05,-664.58 297.05,-664.58 297.05,-664.58 338.95,-664.58 338.95,-664.58 344.95,-664.58 350.95,-670.58 350.95,-676.58 350.95,-676.58 350.95,-688.58 350.95,-688.58 350.95,-694.58 344.95,-700.58 338.95,-700.58"/>
<text xml:space="preserve" text-anchor="middle" x="318" y="-679.45" font-family="Helvetica,sans-Serif" font-size="10.00">read .crai</text>
</g>
<!-- query&#45;&gt;crai -->
<g id="edge2" class="edge">
<title>query&#45;&gt;crai</title>
<path fill="none" stroke="#57606a" d="M318,-727.26C318,-722.46 318,-717.11 318,-711.85"/>
<polygon fill="#57606a" stroke="#57606a" points="321.5,-712.24 318,-702.24 314.5,-712.24 321.5,-712.24"/>
</g>
<!-- cont -->
<g id="node3" class="node">
<title>cont</title>
<path fill="#dafbe1" stroke="#1a7f37" d="M369.7,-627.33C369.7,-627.33 266.3,-627.33 266.3,-627.33 260.3,-627.33 254.3,-621.33 254.3,-615.33 254.3,-615.33 254.3,-603.33 254.3,-603.33 254.3,-597.33 260.3,-591.33 266.3,-591.33 266.3,-591.33 369.7,-591.33 369.7,-591.33 375.7,-591.33 381.7,-597.33 381.7,-603.33 381.7,-603.33 381.7,-615.33 381.7,-615.33 381.7,-621.33 375.7,-627.33 369.7,-627.33"/>
<text xml:space="preserve" text-anchor="middle" x="318" y="-606.2" font-family="Helvetica,sans-Serif" font-size="10.00">read container header</text>
</g>
<!-- crai&#45;&gt;cont -->
<g id="edge3" class="edge">
<title>crai&#45;&gt;cont</title>
<path fill="none" stroke="#57606a" d="M318,-664.33C318,-656.63 318,-647.35 318,-638.67"/>
<polygon fill="#57606a" stroke="#57606a" points="321.5,-638.93 318,-628.93 314.5,-638.93 321.5,-638.93"/>
<text xml:space="preserve" text-anchor="middle" x="364.5" y="-643.03" font-family="Helvetica,sans-Serif" font-size="9.00"> per slice, in parallel </text>
</g>
<!-- cache -->
<g id="node4" class="node">
<title>cache</title>
<path fill="#fff8c5" stroke="#9a6700" d="M348.7,-559.33C348.7,-559.33 287.3,-559.33 287.3,-559.33 281.3,-559.33 275.3,-553.33 275.3,-547.33 275.3,-547.33 275.3,-535.33 275.3,-535.33 275.3,-529.33 281.3,-523.33 287.3,-523.33 287.3,-523.33 348.7,-523.33 348.7,-523.33 354.7,-523.33 360.7,-529.33 360.7,-535.33 360.7,-535.33 360.7,-547.33 360.7,-547.33 360.7,-553.33 354.7,-559.33 348.7,-559.33"/>
<text xml:space="preserve" text-anchor="middle" x="318" y="-538.2" font-family="Helvetica,sans-Serif" font-size="10.00">featureCache</text>
</g>
<!-- cont&#45;&gt;cache -->
<g id="edge4" class="edge">
<title>cont&#45;&gt;cache</title>
<path fill="none" stroke="#57606a" d="M318,-590.99C318,-584.9 318,-577.88 318,-571.11"/>
<polygon fill="#57606a" stroke="#57606a" points="321.5,-571.3 318,-561.3 314.5,-571.3 321.5,-571.3"/>
</g>
<!-- read -->
<g id="node5" class="node">
<title>read</title>
<path fill="#dafbe1" stroke="#1a7f37" d="M290.95,-486.08C290.95,-486.08 213.04,-486.08 213.04,-486.08 207.04,-486.08 201.04,-480.08 201.04,-474.08 201.04,-474.08 201.04,-462.08 201.04,-462.08 201.04,-456.08 207.04,-450.08 213.04,-450.08 213.04,-450.08 290.95,-450.08 290.95,-450.08 296.95,-450.08 302.95,-456.08 302.95,-462.08 302.95,-462.08 302.95,-474.08 302.95,-474.08 302.95,-480.08 296.95,-486.08 290.95,-486.08"/>
<text xml:space="preserve" text-anchor="middle" x="252" y="-464.95" font-family="Helvetica,sans-Serif" font-size="10.00">read slice blocks</text>
</g>
<!-- cache&#45;&gt;read -->
<g id="edge5" class="edge">
<title>cache&#45;&gt;read</title>
<path fill="none" stroke="#57606a" d="M302.02,-523.08C294.08,-514.51 284.32,-503.97 275.54,-494.49"/>
<polygon fill="#57606a" stroke="#57606a" points="278.22,-492.24 268.86,-487.28 273.09,-496.99 278.22,-492.24"/>
<text xml:space="preserve" text-anchor="middle" x="302.08" y="-501.78" font-family="Helvetica,sans-Serif" font-size="9.00"> miss </text>
</g>
<!-- out -->
<g id="node7" class="node">
<title>out</title>
<path fill="#ddf4ff" stroke="#0969da" d="M340.83,-36C340.83,-36 277.17,-36 277.17,-36 271.17,-36 265.17,-30 265.17,-24 265.17,-24 265.17,-12 265.17,-12 265.17,-6 271.17,0 277.17,0 277.17,0 340.83,0 340.83,0 346.83,0 352.83,-6 352.83,-12 352.83,-12 352.83,-24 352.83,-24 352.83,-30 346.83,-36 340.83,-36"/>
<text xml:space="preserve" text-anchor="middle" x="309" y="-14.88" font-family="Helvetica,sans-Serif" font-size="10.00">CramRecord[]</text>
</g>
<!-- cache&#45;&gt;out -->
<g id="edge12" class="edge">
<title>cache&#45;&gt;out</title>
<path fill="none" stroke="#57606a" d="M348.75,-522.99C366.37,-510.56 385,-492 385,-469.08 385,-469.08 385,-469.08 385,-80 385,-64.34 375.07,-52.04 362.39,-42.7"/>
<polygon fill="#57606a" stroke="#57606a" points="364.32,-39.78 354.04,-37.25 360.5,-45.65 364.32,-39.78"/>
<text xml:space="preserve" text-anchor="middle" x="394" y="-278.28" font-family="Helvetica,sans-Serif" font-size="9.00"> hit </text>
</g>
<!-- walk -->
<g id="node8" class="node">
<title>walk</title>
<path fill="#f6f8fa" stroke="#57606a" d="M154.2,-398.83C154.2,-398.83 59.8,-398.83 59.8,-398.83 53.8,-398.83 47.8,-392.83 47.8,-386.83 47.8,-386.83 47.8,-374.83 47.8,-374.83 47.8,-368.83 53.8,-362.83 59.8,-362.83 59.8,-362.83 154.2,-362.83 154.2,-362.83 160.2,-362.83 166.2,-368.83 166.2,-374.83 166.2,-374.83 166.2,-386.83 166.2,-386.83 166.2,-392.83 160.2,-398.83 154.2,-398.83"/>
<text xml:space="preserve" text-anchor="middle" x="107" y="-377.7" font-family="Helvetica,sans-Serif" font-size="10.00">parse block headers</text>
</g>
<!-- read&#45;&gt;walk -->
<g id="edge6" class="edge">
<title>read&#45;&gt;walk</title>
<path fill="none" stroke="#57606a" d="M222.31,-449.62C211.47,-443.25 198.64,-435.71 185.55,-428.01"/>
<polygon fill="#57606a" stroke="#57606a" points="187.69,-425.21 177.3,-423.16 184.15,-431.25 187.69,-425.21"/>
</g>
<!-- ref -->
<g id="node6" class="node">
<title>ref</title>
<path fill="#dafbe1" stroke="#1a7f37" d="M293.95,-99C293.95,-99 174.05,-99 174.05,-99 168.05,-99 162.05,-93 162.05,-87 162.05,-87 162.05,-75 162.05,-75 162.05,-69 168.05,-63 174.05,-63 174.05,-63 293.95,-63 293.95,-63 299.95,-63 305.95,-69 305.95,-75 305.95,-75 305.95,-87 305.95,-87 305.95,-93 299.95,-99 293.95,-99"/>
<text xml:space="preserve" text-anchor="middle" x="234" y="-77.88" font-family="Helvetica,sans-Serif" font-size="10.00">applyReferenceSequence</text>
</g>
<!-- ref&#45;&gt;out -->
<g id="edge11" class="edge">
<title>ref&#45;&gt;out</title>
<path fill="none" stroke="#57606a" d="M255.29,-62.68C262.58,-56.76 270.87,-50.01 278.72,-43.62"/>
<polygon fill="#57606a" stroke="#57606a" points="280.93,-46.34 286.48,-37.32 276.51,-40.91 280.93,-46.34"/>
</g>
<!-- uncmp -->
<g id="node9" class="node">
<title>uncmp</title>
<path fill="#ffd8b5" stroke="#bc4c00" d="M151.95,-335.83C151.95,-335.83 62.05,-335.83 62.05,-335.83 56.05,-335.83 50.05,-329.83 50.05,-323.83 50.05,-323.83 50.05,-311.83 50.05,-311.83 50.05,-305.83 56.05,-299.83 62.05,-299.83 62.05,-299.83 151.95,-299.83 151.95,-299.83 157.95,-299.83 163.95,-305.83 163.95,-311.83 163.95,-311.83 163.95,-323.83 163.95,-323.83 163.95,-329.83 157.95,-335.83 151.95,-335.83"/>
<text xml:space="preserve" text-anchor="middle" x="107" y="-314.7" font-family="Helvetica,sans-Serif" font-size="10.00">uncompress blocks</text>
</g>
<!-- walk&#45;&gt;uncmp -->
<g id="edge7" class="edge">
<title>walk&#45;&gt;uncmp</title>
<path fill="none" stroke="#57606a" d="M107,-362.51C107,-357.71 107,-352.36 107,-347.1"/>
<polygon fill="#57606a" stroke="#57606a" points="110.5,-347.49 107,-337.49 103.5,-347.49 110.5,-347.49"/>
</g>
<!-- recs -->
<g id="node10" class="node">
<title>recs</title>
<path fill="#f6f8fa" stroke="#57606a" d="M151.83,-253.41C151.83,-253.41 52.17,-253.41 52.17,-253.41 46.17,-253.41 40.17,-247.41 40.17,-241.41 40.17,-241.41 40.17,-229.41 40.17,-229.41 40.17,-223.41 46.17,-217.41 52.17,-217.41 52.17,-217.41 151.83,-217.41 151.83,-217.41 157.83,-217.41 163.83,-223.41 163.83,-229.41 163.83,-229.41 163.83,-241.41 163.83,-241.41 163.83,-247.41 157.83,-253.41 151.83,-253.41"/>
<text xml:space="preserve" text-anchor="middle" x="102" y="-238.66" font-family="Helvetica,sans-Serif" font-size="10.00">decode records</text>
<text xml:space="preserve" text-anchor="middle" x="102" y="-225.91" font-family="Helvetica,sans-Serif" font-size="10.00">JS data&#45;series codecs</text>
</g>
<!-- uncmp&#45;&gt;recs -->
<g id="edge8" class="edge">
<title>uncmp&#45;&gt;recs</title>
<path fill="none" stroke="#57606a" d="M105.92,-299.38C105.29,-289.37 104.5,-276.55 103.78,-265.1"/>
<polygon fill="#57606a" stroke="#57606a" points="107.29,-265.1 103.18,-255.34 100.3,-265.54 107.29,-265.1"/>
</g>
<!-- hts -->
<g id="node12" class="node">
<title>hts</title>
<path fill="#ffd8b5" stroke="#bc4c00" d="M311.58,-259.58C311.58,-259.58 204.42,-259.58 204.42,-259.58 198.42,-259.58 192.42,-253.58 192.42,-247.58 192.42,-247.58 192.42,-223.25 192.42,-223.25 192.42,-217.25 198.42,-211.25 204.42,-211.25 204.42,-211.25 311.58,-211.25 311.58,-211.25 317.58,-211.25 323.58,-217.25 323.58,-223.25 323.58,-223.25 323.58,-247.58 323.58,-247.58 323.58,-253.58 317.58,-259.58 311.58,-259.58"/>
<text xml:space="preserve" text-anchor="middle" x="258" y="-245.04" font-family="Helvetica,sans-Serif" font-size="10.00">htscodecs.wasm</text>
<text xml:space="preserve" text-anchor="middle" x="258" y="-232.29" font-family="Helvetica,sans-Serif" font-size="10.00">gzip, bzip2, rans, arith,</text>
<text xml:space="preserve" text-anchor="middle" x="258" y="-219.54" font-family="Helvetica,sans-Serif" font-size="10.00">fqzcomp, tok3</text>
</g>
<!-- uncmp&#45;&gt;hts -->
<g id="edge13" class="edge">
<title>uncmp&#45;&gt;hts</title>
<path fill="none" stroke="#bc4c00" stroke-dasharray="5,2" d="M139.76,-299.38C154.35,-291.61 172.12,-282.15 189.39,-272.95"/>
<polygon fill="#bc4c00" stroke="#bc4c00" points="190.96,-276.08 198.15,-268.29 187.67,-269.9 190.96,-276.08"/>
</g>
<!-- cols -->
<g id="node11" class="node">
<title>cols</title>
<path fill="#f6f8fa" stroke="#57606a" d="M153.95,-184.25C153.95,-184.25 40.05,-184.25 40.05,-184.25 34.05,-184.25 28.05,-178.25 28.05,-172.25 28.05,-172.25 28.05,-160.25 28.05,-160.25 28.05,-154.25 34.05,-148.25 40.05,-148.25 40.05,-148.25 153.95,-148.25 153.95,-148.25 159.95,-148.25 165.95,-154.25 165.95,-160.25 165.95,-160.25 165.95,-172.25 165.95,-172.25 165.95,-178.25 159.95,-184.25 153.95,-184.25"/>
<text xml:space="preserve" text-anchor="middle" x="97" y="-169.5" font-family="Helvetica,sans-Serif" font-size="10.00">read&#45;feature arena,</text>
<text xml:space="preserve" text-anchor="middle" x="97" y="-156.75" font-family="Helvetica,sans-Serif" font-size="10.00">tag and quality columns</text>
</g>
<!-- recs&#45;&gt;cols -->
<g id="edge9" class="edge">
<title>recs&#45;&gt;cols</title>
<path fill="none" stroke="#57606a" d="M100.71,-217.12C100.23,-210.67 99.67,-203.16 99.14,-195.95"/>
<polygon fill="#57606a" stroke="#57606a" points="102.65,-195.94 98.41,-186.23 95.67,-196.46 102.65,-195.94"/>
</g>
<!-- cols&#45;&gt;ref -->
<g id="edge10" class="edge">
<title>cols&#45;&gt;ref</title>
<path fill="none" stroke="#57606a" d="M141.43,-138.25C158.88,-127.65 178.72,-115.59 195.55,-105.37"/>
<polygon fill="#57606a" stroke="#57606a" points="197.3,-108.4 204.02,-100.21 193.66,-102.42 197.3,-108.4"/>
</g>
<!-- xz -->
<g id="node13" class="node">
<title>xz</title>
<path fill="#ffd8b5" stroke="#bc4c00" d="M305.58,-184.25C305.58,-184.25 210.42,-184.25 210.42,-184.25 204.42,-184.25 198.42,-178.25 198.42,-172.25 198.42,-172.25 198.42,-160.25 198.42,-160.25 198.42,-154.25 204.42,-148.25 210.42,-148.25 210.42,-148.25 305.58,-148.25 305.58,-148.25 311.58,-148.25 317.58,-154.25 317.58,-160.25 317.58,-160.25 317.58,-172.25 317.58,-172.25 317.58,-178.25 311.58,-184.25 305.58,-184.25"/>
<text xml:space="preserve" text-anchor="middle" x="258" y="-169.5" font-family="Helvetica,sans-Serif" font-size="10.00">xz&#45;embedded.wasm</text>
<text xml:space="preserve" text-anchor="middle" x="258" y="-156.75" font-family="Helvetica,sans-Serif" font-size="10.00">lzma</text>
</g>
<!-- hts&#45;&gt;xz -->
<!-- l1 -->
<g id="node14" class="node">
<title>l1</title>
<path fill="#dafbe1" stroke="#1a7f37" d="M500,-763.58C500,-763.58 470,-763.58 470,-763.58 464,-763.58 458,-757.58 458,-751.58 458,-751.58 458,-739.58 458,-739.58 458,-733.58 464,-727.58 470,-727.58 470,-727.58 500,-727.58 500,-727.58 506,-727.58 512,-733.58 512,-739.58 512,-739.58 512,-751.58 512,-751.58 512,-757.58 506,-763.58 500,-763.58"/>
<text xml:space="preserve" text-anchor="middle" x="485" y="-742.65" font-family="Helvetica,sans-Serif" font-size="9.00">I/O</text>
</g>
<!-- l2 -->
<g id="node15" class="node">
<title>l2</title>
<path fill="#ffd8b5" stroke="#bc4c00" d="M500,-700.58C500,-700.58 470,-700.58 470,-700.58 464,-700.58 458,-694.58 458,-688.58 458,-688.58 458,-676.58 458,-676.58 458,-670.58 464,-664.58 470,-664.58 470,-664.58 500,-664.58 500,-664.58 506,-664.58 512,-670.58 512,-676.58 512,-676.58 512,-688.58 512,-688.58 512,-694.58 506,-700.58 500,-700.58"/>
<text xml:space="preserve" text-anchor="middle" x="485" y="-679.65" font-family="Helvetica,sans-Serif" font-size="9.00">wasm</text>
</g>
<!-- l1&#45;&gt;l2 -->
<!-- l3 -->
<g id="node16" class="node">
<title>l3</title>
<path fill="#fff8c5" stroke="#9a6700" d="M516.58,-627.33C516.58,-627.33 453.43,-627.33 453.43,-627.33 447.43,-627.33 441.43,-621.33 441.43,-615.33 441.43,-615.33 441.43,-603.33 441.43,-603.33 441.43,-597.33 447.43,-591.33 453.43,-591.33 453.43,-591.33 516.58,-591.33 516.58,-591.33 522.58,-591.33 528.58,-597.33 528.58,-603.33 528.58,-603.33 528.58,-615.33 528.58,-615.33 528.58,-621.33 522.58,-627.33 516.58,-627.33"/>
<text xml:space="preserve" text-anchor="middle" x="485" y="-606.4" font-family="Helvetica,sans-Serif" font-size="9.00">cached / shared</text>
</g>
<!-- l2&#45;&gt;l3 -->
</g>
</svg>
