<?xml version="1.0" encoding="UTF-8" standalone="no"?>
<!DOCTYPE svg PUBLIC "-//W3C//DTD SVG 1.1//EN"
 "http://www.w3.org/Graphics/SVG/1.1/DTD/svg11.dtd">
<!-- Generated by graphviz version 14.1.2 (0)
 -->
<!-- Title: cram Pages: 1 -->
<svg width="885pt" height="992pt"
 viewBox="0.00 0.00 885.00 992.00" xmlns="http://www.w3.org/2000/svg" xmlns:xlink="http://www.w3.org/1999/xlink">
<g id="graph0" class="graph" transform="scale(1 1) rotate(0) translate(4 988.43)">
<title>cram</title>
<polygon fill="white" stroke="none" points="-4,4 -4,-988.43 881.34,-988.43 881.34,4 -4,4"/>
<g id="clust1" class="cluster">
<title>cluster_fill</title>
<polygon fill="none" stroke="#999999" stroke-dasharray="5,2" points="8,-76.27 8,-661.89 282,-661.89 282,-76.27 8,-76.27"/>
<text xml:space="preserve" text-anchor="middle" x="145" y="-648.39" font-family="Helvetica,sans-Serif" font-size="10.00" fill="#666666">cache fill — once per slice, keyed container:slice</text>
</g>
<g id="clust2" class="cluster">
<title>cluster_decode</title>
<polygon fill="none" stroke="#3f6fb5" stroke-dasharray="5,2" points="16,-203.29 16,-534.87 274,-534.87 274,-203.29 16,-203.29"/>
<text xml:space="preserve" text-anchor="middle" x="145" y="-521.37" font-family="Helvetica,sans-Serif" font-size="10.00" fill="#3f6fb5">pool worker if Worker + Blob URL, else in&#45;process</text>
</g>
<g id="clust3" class="cluster">
<title>cluster_wasm</title>
<polygon fill="none" stroke="#b5793f" points="290,-182.54 290,-269.06 635,-269.06 635,-182.54 290,-182.54"/>
<text xml:space="preserve" text-anchor="middle" x="462.5" y="-189.79" font-family="Helvetica,sans-Serif" font-size="10.00" fill="#b5793f">WebAssembly — inlined in the bundle, lazy singleton per JS context</text>
</g>
<!-- query -->
<g id="node1" class="node">
<title>query</title>
<path fill="none" stroke="black" d="M710.83,-984.43C710.83,-984.43 443.17,-984.43 443.17,-984.43 437.17,-984.43 431.17,-978.43 431.17,-972.43 431.17,-972.43 431.17,-960.43 431.17,-960.43 431.17,-954.43 437.17,-948.43 443.17,-948.43 443.17,-948.43 710.83,-948.43 710.83,-948.43 716.83,-948.43 722.83,-954.43 722.83,-960.43 722.83,-960.43 722.83,-972.43 722.83,-972.43 722.83,-978.43 716.83,-984.43 710.83,-984.43"/>
<text xml:space="preserve" text-anchor="middle" x="577" y="-963.3" font-family="Helvetica,sans-Serif" font-size="10.00">IndexedCramFile.getRecordsForRange(seqId, start, end)</text>
</g>
<!-- crai -->
<g id="node2" class="node">
<title>crai</title>
<path fill="none" stroke="black" d="M664.71,-911.43C664.71,-911.43 489.3,-911.43 489.3,-911.43 483.3,-911.43 477.3,-905.43 477.3,-899.43 477.3,-899.43 477.3,-886.41 477.3,-886.41 477.3,-880.41 483.3,-874.41 489.3,-874.41 489.3,-874.41 664.71,-874.41 664.71,-874.41 670.71,-874.41 676.71,-880.41 676.71,-886.41 676.71,-886.41 676.71,-899.43 676.71,-899.43 676.71,-905.43 670.71,-911.43 664.71,-911.43"/>
<text xml:space="preserve" text-anchor="middle" x="577" y="-896.17" font-family="Helvetica,sans-Serif" font-size="10.00">CraiIndex — read .crai, gunzip, parse</text>
<text xml:space="preserve" text-anchor="middle" x="577" y="-883.42" font-family="Helvetica,sans-Serif" font-size="10.00">→ slice entries covering the range</text>
</g>
<!-- query&#45;&gt;crai -->
<g id="edge1" class="edge">
<title>query&#45;&gt;crai</title>
<path fill="none" stroke="#555555" d="M577,-948.12C577,-940.65 577,-931.69 577,-923.24"/>
<polygon fill="#555555" stroke="#555555" points="580.5,-923.33 577,-913.33 573.5,-923.33 580.5,-923.33"/>
</g>
<!-- cont -->
<g id="node3" class="node">
<title>cont</title>
<path fill="none" stroke="black" d="M695.08,-827.16C695.08,-827.16 458.92,-827.16 458.92,-827.16 452.92,-827.16 446.92,-821.16 446.92,-815.16 446.92,-815.16 446.92,-802.14 446.92,-802.14 446.92,-796.14 452.92,-790.14 458.92,-790.14 458.92,-790.14 695.08,-790.14 695.08,-790.14 701.08,-790.14 707.08,-796.14 707.08,-802.14 707.08,-802.14 707.08,-815.16 707.08,-815.16 707.08,-821.16 701.08,-827.16 695.08,-827.16"/>
<text xml:space="preserve" text-anchor="middle" x="577" y="-811.9" font-family="Helvetica,sans-Serif" font-size="10.00">CramContainer — read container header +</text>
<text xml:space="preserve" text-anchor="middle" x="577" y="-799.15" font-family="Helvetica,sans-Serif" font-size="10.00">compression header block (memoized per query)</text>
</g>
<!-- crai&#45;&gt;cont -->
<g id="edge2" class="edge">
<title>crai&#45;&gt;cont</title>
<path fill="none" stroke="#555555" d="M577,-874.07C577,-863.72 577,-850.44 577,-838.63"/>
<polygon fill="#555555" stroke="#555555" points="580.5,-838.98 577,-828.98 573.5,-838.98 580.5,-838.98"/>
<text xml:space="preserve" text-anchor="middle" x="623.5" y="-847.86" font-family="Helvetica,sans-Serif" font-size="9.00"> &#160;per slice, in parallel</text>
</g>
<!-- hts -->
<g id="node12" class="node">
<title>hts</title>
<path fill="#fdf0e4" stroke="black" d="M460.7,-261.06C460.7,-261.06 315.3,-261.06 315.3,-261.06 309.3,-261.06 303.3,-255.06 303.3,-249.06 303.3,-249.06 303.3,-223.29 303.3,-223.29 303.3,-217.29 309.3,-211.29 315.3,-211.29 315.3,-211.29 460.7,-211.29 460.7,-211.29 466.7,-211.29 472.7,-217.29 472.7,-223.29 472.7,-223.29 472.7,-249.06 472.7,-249.06 472.7,-255.06 466.7,-261.06 460.7,-261.06"/>
<text xml:space="preserve" text-anchor="middle" x="388" y="-245.8" font-family="Helvetica,sans-Serif" font-size="10.00">htscodecs.wasm</text>
<text xml:space="preserve" text-anchor="middle" x="388" y="-233.05" font-family="Helvetica,sans-Serif" font-size="10.00">gzip (libdeflate), bzip2, rans,</text>
<text xml:space="preserve" text-anchor="middle" x="388" y="-220.3" font-family="Helvetica,sans-Serif" font-size="10.00">rans4x16, arith, fqzcomp, tok3</text>
</g>
<!-- crai&#45;&gt;hts -->
<g id="edge12" class="edge">
<title>crai&#45;&gt;hts</title>
<path fill="none" stroke="#b5793f" stroke-dasharray="5,2" d="M651.18,-874.05C675.82,-864.32 700.81,-849.51 716,-827.16 834.25,-653.16 948.51,-533.92 822,-365.83 728.55,-241.66 634.58,-314.61 486,-269.06 481.74,-267.76 477.39,-266.4 472.99,-265.02"/>
<polygon fill="#b5793f" stroke="#b5793f" points="474.06,-261.69 463.47,-262.01 471.95,-268.36 474.06,-261.69"/>
</g>
<!-- cache -->
<g id="node4" class="node">
<title>cache</title>
<polygon fill="none" stroke="black" points="577,-753.14 448.88,-726.14 577,-699.14 705.12,-726.14 577,-753.14"/>
<text xml:space="preserve" text-anchor="middle" x="577" y="-729.39" font-family="Helvetica,sans-Serif" font-size="10.00">CramFile.featureCache</text>
<text xml:space="preserve" text-anchor="middle" x="577" y="-716.64" font-family="Helvetica,sans-Serif" font-size="10.00">hit?</text>
</g>
<!-- cont&#45;&gt;cache -->
<g id="edge3" class="edge">
<title>cont&#45;&gt;cache</title>
<path fill="none" stroke="#555555" d="M577,-789.78C577,-782.37 577,-773.48 577,-764.76"/>
<polygon fill="#555555" stroke="#555555" points="580.5,-765.03 577,-755.03 573.5,-765.03 580.5,-765.03"/>
</g>
<!-- out -->
<g id="node5" class="node">
<title>out</title>
<path fill="none" stroke="black" d="M575.96,-37.02C575.96,-37.02 414.05,-37.02 414.05,-37.02 408.05,-37.02 402.05,-31.02 402.05,-25.02 402.05,-25.02 402.05,-12 402.05,-12 402.05,-6 408.05,0 414.05,0 414.05,0 575.96,0 575.96,0 581.96,0 587.96,-6 587.96,-12 587.96,-12 587.96,-25.02 587.96,-25.02 587.96,-31.02 581.96,-37.02 575.96,-37.02"/>
<text xml:space="preserve" text-anchor="middle" x="495" y="-21.76" font-family="Helvetica,sans-Serif" font-size="10.00">filter, then viewAsPairs mate pass</text>
<text xml:space="preserve" text-anchor="middle" x="495" y="-9.01" font-family="Helvetica,sans-Serif" font-size="10.00">→ CramRecord[]</text>
</g>
<!-- cache&#45;&gt;out -->
<g id="edge11" class="edge">
<title>cache&#45;&gt;out</title>
<path fill="none" stroke="#555555" d="M601.89,-703.91C624.05,-682.5 653,-647.27 653,-609.25 653,-609.25 653,-609.25 653,-108.16 653,-75.52 627.04,-54.77 596.16,-41.64"/>
<polygon fill="#555555" stroke="#555555" points="597.53,-38.42 586.94,-38.03 594.98,-44.94 597.53,-38.42"/>
<text xml:space="preserve" text-anchor="middle" x="737" y="-368.53" font-family="Helvetica,sans-Serif" font-size="9.00"> &#160;hit: already decoded and decorated</text>
</g>
<!-- req -->
<g id="node6" class="node">
<title>req</title>
<path fill="none" stroke="black" d="M257.83,-633.14C257.83,-633.14 32.17,-633.14 32.17,-633.14 26.17,-633.14 20.17,-627.14 20.17,-621.14 20.17,-621.14 20.17,-595.37 20.17,-595.37 20.17,-589.37 26.17,-583.37 32.17,-583.37 32.17,-583.37 257.83,-583.37 257.83,-583.37 263.83,-583.37 269.83,-589.37 269.83,-595.37 269.83,-595.37 269.83,-621.14 269.83,-621.14 269.83,-627.14 263.83,-633.14 257.83,-633.14"/>
<text xml:space="preserve" text-anchor="middle" x="145" y="-617.88" font-family="Helvetica,sans-Serif" font-size="10.00">CramSlice.buildDecodeRequest</text>
<text xml:space="preserve" text-anchor="middle" x="145" y="-605.13" font-family="Helvetica,sans-Serif" font-size="10.00">one read of the slice&#39;s whole block region</text>
<text xml:space="preserve" text-anchor="middle" x="145" y="-592.38" font-family="Helvetica,sans-Serif" font-size="10.00">→ bytes + numbers only (SliceDecodeRequest)</text>
</g>
<!-- cache&#45;&gt;req -->
<g id="edge4" class="edge">
<title>cache&#45;&gt;req</title>
<path fill="none" stroke="#555555" d="M521.85,-710.35C452.66,-691.79 332.68,-659.6 246.67,-636.53"/>
<polygon fill="#555555" stroke="#555555" points="247.59,-633.15 237.03,-633.94 245.78,-639.91 247.59,-633.15"/>
<text xml:space="preserve" text-anchor="middle" x="425.52" y="-672.59" font-family="Helvetica,sans-Serif" font-size="9.00"> &#160;miss</text>
</g>
<!-- walk -->
<g id="node7" class="node">
<title>walk</title>
<path fill="none" stroke="black" d="M228.2,-506.12C228.2,-506.12 55.8,-506.12 55.8,-506.12 49.8,-506.12 43.8,-500.12 43.8,-494.12 43.8,-494.12 43.8,-481.1 43.8,-481.1 43.8,-475.1 49.8,-469.1 55.8,-469.1 55.8,-469.1 228.2,-469.1 228.2,-469.1 234.2,-469.1 240.2,-475.1 240.2,-481.1 240.2,-481.1 240.2,-494.12 240.2,-494.12 240.2,-500.12 234.2,-506.12 228.2,-506.12"/>
<text xml:space="preserve" text-anchor="middle" x="142" y="-490.86" font-family="Helvetica,sans-Serif" font-size="10.00">parseBlockFromBuffer × numBlocks</text>
<text xml:space="preserve" text-anchor="middle" x="142" y="-478.11" font-family="Helvetica,sans-Serif" font-size="10.00">serial: each header locates the next</text>
</g>
<!-- req&#45;&gt;walk -->
<g id="edge5" class="edge">
<title>req&#45;&gt;walk</title>
<path fill="none" stroke="#555555" d="M144.39,-582.96C144.11,-572.24 143.78,-559.16 143.46,-546.18"/>
<polygon fill="#555555" stroke="#555555" points="146.96,-546.29 143.21,-536.38 139.96,-546.46 146.96,-546.29"/>
<text xml:space="preserve" text-anchor="middle" x="209.11" y="-556.82" font-family="Helvetica,sans-Serif" font-size="9.00"> &#160;postMessage(sliceBytes, …)</text>
<text xml:space="preserve" text-anchor="middle" x="209.11" y="-545.57" font-family="Helvetica,sans-Serif" font-size="9.00"> &#160;or a direct call</text>
</g>
<!-- uncmp -->
<g id="node8" class="node">
<title>uncmp</title>
<path fill="none" stroke="black" d="M207.7,-432.1C207.7,-432.1 68.3,-432.1 68.3,-432.1 62.3,-432.1 56.3,-426.1 56.3,-420.1 56.3,-420.1 56.3,-407.08 56.3,-407.08 56.3,-401.08 62.3,-395.08 68.3,-395.08 68.3,-395.08 207.7,-395.08 207.7,-395.08 213.7,-395.08 219.7,-401.08 219.7,-407.08 219.7,-407.08 219.7,-420.1 219.7,-420.1 219.7,-426.1 213.7,-432.1 207.7,-432.1"/>
<text xml:space="preserve" text-anchor="middle" x="138" y="-416.84" font-family="Helvetica,sans-Serif" font-size="10.00">uncompressBlockContent</text>
<text xml:space="preserve" text-anchor="middle" x="138" y="-404.09" font-family="Helvetica,sans-Serif" font-size="10.00">per block, by its method byte</text>
</g>
<!-- walk&#45;&gt;uncmp -->
<g id="edge6" class="edge">
<title>walk&#45;&gt;uncmp</title>
<path fill="none" stroke="#555555" d="M141.01,-468.81C140.59,-461.28 140.09,-452.3 139.62,-443.85"/>
<polygon fill="#555555" stroke="#555555" points="143.12,-443.74 139.08,-433.95 136.14,-444.13 143.12,-443.74"/>
</g>
<!-- ctx -->
<g id="node9" class="node">
<title>ctx</title>
<path fill="none" stroke="black" d="M232.83,-347.83C232.83,-347.83 37.17,-347.83 37.17,-347.83 31.17,-347.83 25.17,-341.83 25.17,-335.83 25.17,-335.83 25.17,-310.06 25.17,-310.06 25.17,-304.06 31.17,-298.06 37.17,-298.06 37.17,-298.06 232.83,-298.06 232.83,-298.06 238.83,-298.06 244.83,-304.06 244.83,-310.06 244.83,-310.06 244.83,-335.83 244.83,-335.83 244.83,-341.83 238.83,-347.83 232.83,-347.83"/>
<text xml:space="preserve" text-anchor="middle" x="135" y="-332.57" font-family="Helvetica,sans-Serif" font-size="10.00">buildSliceDecodeContext</text>
<text xml:space="preserve" text-anchor="middle" x="135" y="-319.82" font-family="Helvetica,sans-Serif" font-size="10.00">JS data&#45;series codecs: external, huffman,</text>
<text xml:space="preserve" text-anchor="middle" x="135" y="-307.07" font-family="Helvetica,sans-Serif" font-size="10.00">beta, gamma, subexp, byteArray*</text>
</g>
<!-- uncmp&#45;&gt;ctx -->
<g id="edge7" class="edge">
<title>uncmp&#45;&gt;ctx</title>
<path fill="none" stroke="#555555" d="M137.39,-394.65C137.05,-384.53 136.61,-371.52 136.2,-359.43"/>
<polygon fill="#555555" stroke="#555555" points="139.71,-359.63 135.87,-349.75 132.71,-359.87 139.71,-359.63"/>
<text xml:space="preserve" text-anchor="middle" x="188.52" y="-368.53" font-family="Helvetica,sans-Serif" font-size="9.00"> &#160;decompressed blocks</text>
</g>
<!-- uncmp&#45;&gt;hts -->
<g id="edge13" class="edge">
<title>uncmp&#45;&gt;hts</title>
<path fill="none" stroke="#b5793f" stroke-dasharray="5,2" d="M206.74,-394.58C219.59,-389.84 232.56,-384.05 244,-377.08 291.14,-348.36 335.07,-301.64 361.71,-270.17"/>
<polygon fill="#b5793f" stroke="#b5793f" points="364.4,-272.41 368.12,-262.49 359.02,-267.93 364.4,-272.41"/>
</g>
<!-- xz -->
<g id="node13" class="node">
<title>xz</title>
<path fill="#fdf0e4" stroke="black" d="M602.58,-254.68C602.58,-254.68 507.42,-254.68 507.42,-254.68 501.42,-254.68 495.42,-248.68 495.42,-242.68 495.42,-242.68 495.42,-229.66 495.42,-229.66 495.42,-223.66 501.42,-217.66 507.42,-217.66 507.42,-217.66 602.58,-217.66 602.58,-217.66 608.58,-217.66 614.58,-223.66 614.58,-229.66 614.58,-229.66 614.58,-242.68 614.58,-242.68 614.58,-248.68 608.58,-254.68 602.58,-254.68"/>
<text xml:space="preserve" text-anchor="middle" x="555" y="-239.42" font-family="Helvetica,sans-Serif" font-size="10.00">xz&#45;embedded.wasm</text>
<text xml:space="preserve" text-anchor="middle" x="555" y="-226.67" font-family="Helvetica,sans-Serif" font-size="10.00">lzma</text>
</g>
<!-- uncmp&#45;&gt;xz -->
<g id="edge14" class="edge">
<title>uncmp&#45;&gt;xz</title>
<path fill="none" stroke="#b5793f" stroke-dasharray="5,2" d="M211.5,-394.64C229.53,-389.58 248.63,-383.63 266,-377.08 356.83,-342.81 457.83,-290.42 513.13,-260.42"/>
<polygon fill="#b5793f" stroke="#b5793f" points="514.47,-263.67 521.58,-255.82 511.12,-257.53 514.47,-263.67"/>
</g>
<!-- recs -->
<g id="node10" class="node">
<title>recs</title>
<path fill="none" stroke="black" d="M219.95,-261.06C219.95,-261.06 40.05,-261.06 40.05,-261.06 34.05,-261.06 28.05,-255.06 28.05,-249.06 28.05,-249.06 28.05,-223.29 28.05,-223.29 28.05,-217.29 34.05,-211.29 40.05,-211.29 40.05,-211.29 219.95,-211.29 219.95,-211.29 225.95,-211.29 231.95,-217.29 231.95,-223.29 231.95,-223.29 231.95,-249.06 231.95,-249.06 231.95,-255.06 225.95,-261.06 219.95,-261.06"/>
<text xml:space="preserve" text-anchor="middle" x="130" y="-245.8" font-family="Helvetica,sans-Serif" font-size="10.00">decodeRecord × numRecords</text>
<text xml:space="preserve" text-anchor="middle" x="130" y="-233.05" font-family="Helvetica,sans-Serif" font-size="10.00">→ read&#45;feature / tag / quality columns</text>
<text xml:space="preserve" text-anchor="middle" x="130" y="-220.3" font-family="Helvetica,sans-Serif" font-size="10.00">then associateIntraSliceMates</text>
</g>
<!-- ctx&#45;&gt;recs -->
<g id="edge8" class="edge">
<title>ctx&#45;&gt;recs</title>
<path fill="none" stroke="#555555" d="M133.58,-297.88C133.12,-290.01 132.59,-281.09 132.09,-272.56"/>
<polygon fill="#555555" stroke="#555555" points="135.59,-272.59 131.51,-262.81 128.61,-273 135.59,-272.59"/>
</g>
<!-- ref -->
<g id="node11" class="node">
<title>ref</title>
<path fill="none" stroke="black" d="M254.45,-134.04C254.45,-134.04 35.55,-134.04 35.55,-134.04 29.55,-134.04 23.55,-128.04 23.55,-122.04 23.55,-122.04 23.55,-96.27 23.55,-96.27 23.55,-90.27 29.55,-84.27 35.55,-84.27 35.55,-84.27 254.45,-84.27 254.45,-84.27 260.45,-84.27 266.45,-90.27 266.45,-96.27 266.45,-96.27 266.45,-122.04 266.45,-122.04 266.45,-128.04 260.45,-134.04 254.45,-134.04"/>
<text xml:space="preserve" text-anchor="middle" x="145" y="-118.78" font-family="Helvetica,sans-Serif" font-size="10.00">applyReferenceSequence — main thread only</text>
<text xml:space="preserve" text-anchor="middle" x="145" y="-106.03" font-family="Helvetica,sans-Serif" font-size="10.00">fetchReferenceSequence callback</text>
<text xml:space="preserve" text-anchor="middle" x="145" y="-93.28" font-family="Helvetica,sans-Serif" font-size="10.00">→ substitutions resolved, refRegion attached</text>
</g>
<!-- recs&#45;&gt;ref -->
<g id="edge9" class="edge">
<title>recs&#45;&gt;ref</title>
<path fill="none" stroke="#555555" d="M133.83,-203.29C135.94,-185.66 138.58,-163.7 140.76,-145.53"/>
<polygon fill="#555555" stroke="#555555" points="144.22,-146.03 141.94,-135.69 137.27,-145.2 144.22,-146.03"/>
<text xml:space="preserve" text-anchor="middle" x="256.72" y="-165.99" font-family="Helvetica,sans-Serif" font-size="9.00"> &#160;sliceTransfer — columns transferred at zero copy,</text>
<text xml:space="preserve" text-anchor="middle" x="256.72" y="-154.74" font-family="Helvetica,sans-Serif" font-size="9.00"> &#160;per&#45;record scalars in one Int32Array (worker path)</text>
</g>
<!-- ref&#45;&gt;out -->
<g id="edge10" class="edge">
<title>ref&#45;&gt;out</title>
<path fill="none" stroke="#555555" d="M241.1,-83.82C295.02,-70.16 361.58,-53.3 413.03,-40.27"/>
<polygon fill="#555555" stroke="#555555" points="413.79,-43.69 422.63,-37.84 412.07,-36.9 413.79,-43.69"/>
<text xml:space="preserve" text-anchor="middle" x="404.6" y="-57.72" font-family="Helvetica,sans-Serif" font-size="9.00"> &#160;decoded slice, cached</text>
</g>
</g>
</svg>
